<svg xmlns="http://www.w3.org/2000/svg" viewBox="0 0 512 512">
  <defs>
    <radialGradient id="g" cx="50%" cy="40%" r="60%">
      <stop offset="0%" stop-color="#ffe794"/>
      <stop offset="55%" stop-color="#efc84a"/>
      <stop offset="100%" stop-color="#c89e2b"/>
    </radialGradient>
  </defs>
  <circle cx="256" cy="256" r="236" fill="url(#g)" stroke="#8c6b1b" stroke-width="16"/>
  <circle cx="256" cy="256" r="206" fill="none" stroke="#b78f28" stroke-width="10" stroke-dasharray="8 10"/>
  <!-- funny eagle with shades -->
  <g transform="translate(0,18)">
    <ellipse cx="256" cy="240" rx="120" ry="110" fill="#fff"/>
    <ellipse cx="200" cy="220" rx="26" ry="22" fill="#000"/>
    <ellipse cx="312" cy="220" rx="26" ry="22" fill="#000"/>
    <rect x="170" y="205" width="172" height="40" rx="18" fill="#111"/>
    <rect x="238" y="205" width="36" height="40" fill="#111"/>
    <polygon points="256,240 290,276 222,276" fill="#f4b400" stroke="#a67c00" stroke-width="6"/>
    <path d="M188 310c35 28 101 28 136 0" fill="none" stroke="#d9d9d9" stroke-width="10" stroke-linecap="round"/>
    <path d="M150 330c-20 45 40 70 106 70s126-25 106-70" fill="none" stroke="#ffffff" stroke-opacity=".7" stroke-width="10"/>
    <path d="M138 320c25 40 80 40 118 40 38 0 92 0 118-40" fill="none" stroke="#cfcfcf" stroke-width="6"/>
    <path d="M136 268 q-28 40 0 64" fill="none" stroke="#fff" stroke-width="8" stroke-linecap="round"/>
    <path d="M376 268 q28 40 0 64" fill="none" stroke="#fff" stroke-width="8" stroke-linecap="round"/>
  </g>
  <!-- rim text -->
  <text x="256" y="90" text-anchor="middle" font-family="Verdana,Arial,sans-serif" font-weight="700" font-size="28" fill="#5e4612" letter-spacing=".2em">PISIONT GROSZY</text>
  <text x="256" y="480" text-anchor="middle" font-family="Verdana,Arial,sans-serif" font-weight="600" font-size="20" fill="#5e4612">ORZEŁ</text>
</svg>
